# Blender v3.0.0 OBJ File: ''
# www.blender.org
mtllib test.mtl
o Grid
v -1.000000 0.000000 1.000000
v -0.800000 0.000000 1.000000
v -0.600000 0.000000 1.000000
v -0.400000 0.000000 1.000000
v -0.200285 0.006673 1.002048
v 0.000102 0.002571 1.000828
v 0.200000 0.000000 1.000000
v 0.400031 0.004443 1.001327
v 0.600860 0.010418 1.003065
v 0.800004 0.000036 1.000010
v 1.000000 0.000000 1.000000
v -1.000000 0.000000 0.800000
v -0.800000 0.000000 0.800000
v -0.678875 0.056284 0.828655
v -0.401619 0.049808 0.806521
v -0.198891 0.209362 0.843211
v 0.012286 0.226377 0.845025
v 0.208016 0.117375 0.817427
v 0.409753 0.151207 0.821969
v 0.624351 0.237659 0.844498
v 0.828856 0.166510 0.824833
v 1.000630 0.002146 0.800170
v -1.000000 0.000000 0.600000
v -0.800956 0.005940 0.600667
v -0.964514 0.289288 0.734332
v -0.401849 0.093352 0.606620
v -0.196891 0.188453 0.617729
v 0.012798 0.218918 0.622839
v 0.208638 0.144659 0.611232
v 0.408724 0.280238 0.607145
v 0.629460 0.327151 0.607684
v 0.858925 0.258301 0.611962
v 1.008013 0.024690 0.601163
v -1.000000 0.000000 0.400000
v -0.803132 0.031690 0.402316
v -0.605242 0.055161 0.403737
v -0.402214 0.100783 0.404294
v -0.199219 0.141764 0.403520
v 0.006798 0.112199 0.402257
v 0.204873 0.064848 0.401034
v 0.403030 0.167049 0.384438
v 0.613999 0.283374 0.376637
v 0.860406 0.303067 0.383819
v 1.006429 0.019741 0.399635
v -1.000000 0.000000 0.200000
v -0.804925 0.046963 0.202219
v -0.606229 0.070796 0.202253
v -0.402797 0.110073 0.202117
v -0.201687 0.104298 0.202111
v -0.000039 0.021113 0.201771
v 0.205993 0.102460 0.211598
v 0.401044 0.056391 0.201780
v 0.605796 0.123310 0.186913
v 0.821447 0.157652 0.188801
v 1.006034 0.048039 0.196238
v -1.000000 0.000000 0.000000
v -0.805495 0.051407 0.000705
v -0.606163 0.085687 0.001263
v -0.518891 0.302256 0.010608
v -0.470318 0.482598 0.024900
v 0.000762 0.153108 0.010926
v 0.215166 0.229134 0.028991
v 0.406978 0.144523 0.017206
v 0.604417 0.070901 -0.003030
v 0.806324 0.068464 -0.004888
v 1.000633 0.006041 -0.000328
v -1.000000 0.000000 -0.200000
v -0.803458 0.032217 -0.199912
v -0.607833 0.104002 -0.200063
v -0.404473 0.102874 -0.199654
v -0.203766 0.044199 -0.199341
v -0.001864 0.096779 -0.200687
v 0.200729 0.115682 -0.196186
v 0.399802 0.068330 -0.199997
v 0.600501 0.069190 -0.201583
v 0.800691 0.032045 -0.199966
v 1.000000 0.000000 -0.200000
v -1.000000 0.000000 -0.400000
v -0.800001 0.000016 -0.400000
v -0.605541 0.074695 -0.400546
v -0.405659 0.086846 -0.400557
v -0.201682 0.056057 -0.401043
v -0.002964 0.092486 -0.401897
v 0.197518 0.095619 -0.400518
v 0.397909 0.107733 -0.401710
v 0.596583 0.169338 -0.405157
v 1.001974 0.167768 -0.550469
v 1.000000 0.000000 -0.400000
v -1.000000 0.000000 -0.600000
v -0.800000 0.000000 -0.600000
v -0.603126 0.041729 -0.600440
v -0.405224 0.066765 -0.601972
v -0.204780 0.086279 -0.604472
v -0.003617 0.076371 -0.604498
v 0.197795 0.064472 -0.602644
v 0.397733 0.065520 -0.602175
v 0.598457 0.095488 -0.604616
v 0.920812 0.107723 -0.691057
v 1.000000 0.000000 -0.600000
v -1.000000 0.000000 -0.800000
v -0.800000 0.000000 -0.800000
v -0.600000 0.000000 -0.800000
v -0.403084 0.037519 -0.801713
v -0.204217 0.061169 -0.803895
v -0.003048 0.056406 -0.803634
v 0.198655 0.040636 -0.801807
v 0.398715 0.035316 -0.801665
v 0.600028 0.011894 -0.800478
v 0.800027 0.011722 -0.800471
v 1.000000 0.000000 -0.800000
v -1.000000 0.000000 -1.000000
v -0.800000 0.000000 -1.000000
v -0.600000 0.000000 -1.000000
v -0.400000 0.000000 -1.000000
v -0.200000 0.000000 -1.000000
v 0.000000 0.000000 -1.000000
v 0.200000 0.000000 -1.000000
v 0.400000 0.000000 -1.000000
v 0.600000 0.000000 -1.000000
v 0.800000 0.000000 -1.000000
v 1.000000 0.000000 -1.000000
vt 0.000000 0.000000
vt 0.100000 0.000000
vt 0.100000 0.100000
vt 0.000000 0.100000
vt 0.200000 0.000000
vt 0.200000 0.100000
vt 0.300000 0.000000
vt 0.300000 0.100000
vt 0.400000 0.000000
vt 0.400000 0.100000
vt 0.500000 0.000000
vt 0.500000 0.100000
vt 0.600000 0.000000
vt 0.600000 0.100000
vt 0.700000 0.000000
vt 0.700000 0.100000
vt 0.800000 0.000000
vt 0.800000 0.100000
vt 0.900000 0.000000
vt 0.900000 0.100000
vt 1.000000 0.000000
vt 1.000000 0.100000
vt 0.100000 0.200000
vt 0.000000 0.200000
vt 0.200000 0.200000
vt 0.300000 0.200000
vt 0.400000 0.200000
vt 0.500000 0.200000
vt 0.600000 0.200000
vt 0.700000 0.200000
vt 0.800000 0.200000
vt 0.900000 0.200000
vt 1.000000 0.200000
vt 0.100000 0.300000
vt 0.000000 0.300000
vt 0.200000 0.300000
vt 0.300000 0.300000
vt 0.400000 0.300000
vt 0.500000 0.300000
vt 0.600000 0.300000
vt 0.700000 0.300000
vt 0.800000 0.300000
vt 0.900000 0.300000
vt 1.000000 0.300000
vt 0.100000 0.400000
vt 0.000000 0.400000
vt 0.200000 0.400000
vt 0.300000 0.400000
vt 0.400000 0.400000
vt 0.500000 0.400000
vt 0.600000 0.400000
vt 0.700000 0.400000
vt 0.800000 0.400000
vt 0.900000 0.400000
vt 1.000000 0.400000
vt 0.100000 0.500000
vt 0.000000 0.500000
vt 0.200000 0.500000
vt 0.300000 0.500000
vt 0.400000 0.500000
vt 0.500000 0.500000
vt 0.600000 0.500000
vt 0.700000 0.500000
vt 0.800000 0.500000
vt 0.900000 0.500000
vt 1.000000 0.500000
vt 0.100000 0.600000
vt 0.000000 0.600000
vt 0.200000 0.600000
vt 0.300000 0.600000
vt 0.400000 0.600000
vt 0.500000 0.600000
vt 0.600000 0.600000
vt 0.700000 0.600000
vt 0.800000 0.600000
vt 0.900000 0.600000
vt 1.000000 0.600000
vt 0.100000 0.700000
vt 0.000000 0.700000
vt 0.200000 0.700000
vt 0.300000 0.700000
vt 0.400000 0.700000
vt 0.500000 0.700000
vt 0.600000 0.700000
vt 0.700000 0.700000
vt 0.800000 0.700000
vt 0.900000 0.700000
vt 1.000000 0.700000
vt 0.100000 0.800000
vt 0.000000 0.800000
vt 0.200000 0.800000
vt 0.300000 0.800000
vt 0.400000 0.800000
vt 0.500000 0.800000
vt 0.600000 0.800000
vt 0.700000 0.800000
vt 0.800000 0.800000
vt 0.900000 0.800000
vt 1.000000 0.800000
vt 0.100000 0.900000
vt 0.000000 0.900000
vt 0.200000 0.900000
vt 0.300000 0.900000
vt 0.400000 0.900000
vt 0.500000 0.900000
vt 0.600000 0.900000
vt 0.700000 0.900000
vt 0.800000 0.900000
vt 0.900000 0.900000
vt 1.000000 0.900000
vt 0.100000 1.000000
vt 0.000000 1.000000
vt 0.200000 1.000000
vt 0.300000 1.000000
vt 0.400000 1.000000
vt 0.500000 1.000000
vt 0.600000 1.000000
vt 0.700000 1.000000
vt 0.800000 1.000000
vt 0.900000 1.000000
vt 1.000000 1.000000
vn 0.0000 1.0000 0.0000
vn -0.1857 0.9649 0.1857
vn 0.0257 0.9614 0.2739
vn -0.3648 0.7567 0.5425
vn -0.0198 0.5940 0.8043
vn 0.2407 0.6762 0.6962
vn -0.0854 0.8068 0.5846
vn -0.1905 0.6674 0.7199
vn 0.1690 0.6241 0.7628
vn 0.3924 0.8270 0.4027
vn -0.0149 0.9998 0.0149
vn -0.7962 -0.3390 0.5012
vn 0.2860 0.8211 0.4939
vn -0.5329 0.8451 0.0428
vn -0.1108 0.9918 -0.0635
vn 0.4270 0.9032 0.0429
vn -0.3678 0.8716 0.3240
vn -0.2865 0.8634 0.4152
vn 0.2965 0.8775 0.3769
vn 0.7667 0.5972 0.2355
vn -0.0949 0.9934 0.0647
vn -0.7067 0.3498 -0.6149
vn 0.1332 0.9411 -0.3107
vn -0.3132 0.9457 -0.0871
vn 0.0010 0.9430 -0.3327
vn 0.2602 0.8839 -0.3886
vn -0.4943 0.7979 -0.3449
vn -0.3425 0.8927 -0.2928
vn 0.1028 0.9947 -0.0010
vn 0.8673 0.4956 0.0457
vn -0.1970 0.9796 0.0383
vn -0.1184 0.9900 0.0770
vn -0.2041 0.9770 0.0611
vn -0.0867 0.9939 -0.0687
vn 0.2532 0.9197 -0.3000
vn -0.0802 0.9877 -0.1343
vn -0.1512 0.9700 -0.1901
vn -0.3637 0.7582 -0.5412
vn -0.0798 0.7854 -0.6138
vn 0.7474 0.6138 -0.2543
vn -0.2449 0.9695 0.0111
vn -0.1444 0.9884 0.0477
vn -0.5781 0.6386 0.5078
vn -0.3046 0.3636 0.8804
vn 0.4214 0.6655 0.6161
vn -0.3275 0.7808 0.5321
vn 0.3034 0.8170 0.4904
vn 0.0249 0.9951 0.0952
vn -0.0716 0.9367 -0.3427
vn 0.4011 0.8617 -0.3108
vn -0.2088 0.9768 -0.0479
vn -0.2594 0.9658 -0.0023
vn -0.5190 0.7209 -0.4593
vn -0.1824 0.4769 -0.8599
vn 0.2793 0.7143 -0.6417
vn -0.1900 0.9176 -0.3492
vn 0.2806 0.8771 -0.3897
vn 0.1668 0.9683 -0.1859
vn 0.0974 0.9904 -0.0983
vn 0.2332 0.9665 -0.1077
vn -0.0807 0.9935 -0.0807
vn -0.3479 0.9259 -0.1472
vn -0.0270 0.9933 -0.1123
vn 0.2158 0.9764 -0.0096
vn -0.2168 0.9761 0.0178
vn -0.0536 0.9968 -0.0593
vn 0.0884 0.9950 0.0463
vn -0.1422 0.9353 0.3241
vn 0.1597 0.8865 0.4343
vn 0.5023 0.7789 0.3757
vn -0.2844 0.9553 -0.0805
vn -0.0928 0.9870 -0.1311
vn 0.0280 0.9993 0.0248
vn -0.0661 0.9972 0.0353
vn 0.0226 0.9930 -0.1160
vn -0.0327 0.9833 -0.1792
vn -0.2188 0.9369 -0.2728
vn -0.1216 0.9329 -0.3390
vn 0.9686 0.0599 -0.2414
vn -0.1041 0.9891 -0.1041
vn -0.1555 0.9722 -0.1749
vn -0.1080 0.9850 -0.1349
vn 0.0363 0.9930 -0.1122
vn 0.0691 0.9917 -0.1088
vn 0.0108 0.9909 -0.1343
vn -0.0165 0.9608 -0.2767
vn -0.0989 0.8741 -0.4756
vn 0.4702 0.7742 -0.4237
vn -0.0941 0.9911 -0.0941
vn -0.0587 0.9682 -0.2433
vn 0.0116 0.9579 -0.2868
vn 0.0392 0.9704 -0.2382
vn 0.0131 0.9821 -0.1880
vn 0.0582 0.9914 -0.1175
vn 0.0004 0.9983 -0.0591
vn 0.0293 0.9991 -0.0293
usemtl None
s off
f 1/1/1 2/2/1 13/3/1 12/4/1
f 2/2/2 3/5/2 14/6/2 13/3/2
f 3/5/3 4/7/3 15/8/3 14/6/3
f 4/7/4 5/9/4 16/10/4 15/8/4
f 5/9/5 6/11/5 17/12/5 16/10/5
f 6/11/6 7/13/6 18/14/6 17/12/6
f 7/13/7 8/15/7 19/16/7 18/14/7
f 8/15/8 9/17/8 20/18/8 19/16/8
f 9/17/9 10/19/9 21/20/9 20/18/9
f 10/19/10 11/21/10 22/22/10 21/20/10
f 12/4/11 13/3/11 24/23/11 23/24/11
f 13/3/12 14/6/12 25/25/12 24/23/12
f 14/6/13 15/8/13 26/26/13 25/25/13
f 15/8/14 16/10/14 27/27/14 26/26/14
f 16/10/15 17/12/15 28/28/15 27/27/15
f 17/12/16 18/14/16 29/29/16 28/28/16
f 18/14/17 19/16/17 30/30/17 29/29/17
f 19/16/18 20/18/18 31/31/18 30/30/18
f 20/18/19 21/20/19 32/32/19 31/31/19
f 21/20/20 22/22/20 33/33/20 32/32/20
f 23/24/21 24/23/21 35/34/21 34/35/21
f 24/23/22 25/25/22 36/36/22 35/34/22
f 25/25/23 26/26/23 37/37/23 36/36/23
f 26/26/24 27/27/24 38/38/24 37/37/24
f 27/27/25 28/28/25 39/39/25 38/38/25
f 28/28/26 29/29/26 40/40/26 39/39/26
f 29/29/27 30/30/27 41/41/27 40/40/27
f 30/30/28 31/31/28 42/42/28 41/41/28
f 31/31/29 32/32/29 43/43/29 42/42/29
f 32/32/30 33/33/30 44/44/30 43/43/30
f 34/35/31 35/34/31 46/45/31 45/46/31
f 35/34/32 36/36/32 47/47/32 46/45/32
f 36/36/33 37/37/33 48/48/33 47/47/33
f 37/37/34 38/38/34 49/49/34 48/48/34
f 38/38/35 39/39/35 50/50/35 49/49/35
f 39/39/36 40/40/36 51/51/36 50/50/36
f 40/40/37 41/41/37 52/52/37 51/51/37
f 41/41/38 42/42/38 53/53/38 52/52/38
f 42/42/39 43/43/39 54/54/39 53/53/39
f 43/43/40 44/44/40 55/55/40 54/54/40
f 45/46/41 46/45/41 57/56/41 56/57/41
f 46/45/42 47/47/42 58/58/42 57/56/42
f 47/47/43 48/48/43 59/59/43 58/58/43
f 48/48/44 49/49/44 60/60/44 59/59/44
f 49/49/45 50/50/45 61/61/45 60/60/45
f 50/50/46 51/51/46 62/62/46 61/61/46
f 51/51/47 52/52/47 63/63/47 62/62/47
f 52/52/48 53/53/48 64/64/48 63/63/48
f 53/53/49 54/54/49 65/65/49 64/64/49
f 54/54/50 55/55/50 66/66/50 65/65/50
f 56/57/51 57/56/51 68/67/51 67/68/51
f 57/56/52 58/58/52 69/69/52 68/67/52
f 58/58/53 59/59/53 70/70/53 69/69/53
f 59/59/54 60/60/54 71/71/54 70/70/54
f 60/60/55 61/61/55 72/72/55 71/71/55
f 61/61/56 62/62/56 73/73/56 72/72/56
f 62/62/57 63/63/57 74/74/57 73/73/57
f 63/63/58 64/64/58 75/75/58 74/74/58
f 64/64/59 65/65/59 76/76/59 75/75/59
f 65/65/60 66/66/60 77/77/60 76/76/60
f 67/68/61 68/67/61 79/78/61 78/79/61
f 68/67/62 69/69/62 80/80/62 79/78/62
f 69/69/63 70/70/63 81/81/63 80/80/63
f 70/70/64 71/71/64 82/82/64 81/81/64
f 71/71/65 72/72/65 83/83/65 82/82/65
f 72/72/66 73/73/66 84/84/66 83/83/66
f 73/73/67 74/74/67 85/85/67 84/84/67
f 74/74/68 75/75/68 86/86/68 85/85/68
f 75/75/69 76/76/69 87/87/69 86/86/69
f 76/76/70 77/77/70 88/88/70 87/87/70
f 78/79/1 79/78/1 90/89/1 89/90/1
f 79/78/71 80/80/71 91/91/71 90/89/71
f 80/80/72 81/81/72 92/92/72 91/91/72
f 81/81/73 82/82/73 93/93/73 92/92/73
f 82/82/74 83/83/74 94/94/74 93/93/74
f 83/83/75 84/84/75 95/95/75 94/94/75
f 84/84/76 85/85/76 96/96/76 95/95/76
f 85/85/77 86/86/77 97/97/77 96/96/77
f 86/86/78 87/87/78 98/98/78 97/97/78
f 87/87/79 88/88/79 99/99/79 98/98/79
f 89/90/1 90/89/1 101/100/1 100/101/1
f 90/89/80 91/91/80 102/102/80 101/100/80
f 91/91/81 92/92/81 103/103/81 102/102/81
f 92/92/82 93/93/82 104/104/82 103/103/82
f 93/93/83 94/94/83 105/105/83 104/104/83
f 94/94/84 95/95/84 106/106/84 105/105/84
f 95/95/85 96/96/85 107/107/85 106/106/85
f 96/96/86 97/97/86 108/108/86 107/107/86
f 97/97/87 98/98/87 109/109/87 108/108/87
f 98/98/88 99/99/88 110/110/88 109/109/88
f 100/101/1 101/100/1 112/111/1 111/112/1
f 101/100/1 102/102/1 113/113/1 112/111/1
f 102/102/89 103/103/89 114/114/89 113/113/89
f 103/103/90 104/104/90 115/115/90 114/114/90
f 104/104/91 105/105/91 116/116/91 115/115/91
f 105/105/92 106/106/92 117/117/92 116/116/92
f 106/106/93 107/107/93 118/118/93 117/117/93
f 107/107/94 108/108/94 119/119/94 118/118/94
f 108/108/95 109/109/95 120/120/95 119/119/95
f 109/109/96 110/110/96 121/121/96 120/120/96
